<svg width="24" height="25" viewBox="0 0 24 25" fill="none" xmlns="http://www.w3.org/2000/svg">
<g id="Group">
<path id="Vector" d="M23.9187 12.5004C23.9187 18.4161 19.5349 23.3067 13.84 24.1003C13.3075 24.1742 12.7627 24.2128 12.2097 24.2128C11.5714 24.2128 10.9446 24.1619 10.3341 24.0634C4.75824 23.1656 0.5 18.3299 0.5 12.5004C0.5 6.03158 5.7428 0.787231 12.2089 0.787231C18.675 0.787231 23.9187 6.03158 23.9187 12.5004Z" fill="#1877F2"/>
<path id="Vector_2" d="M13.8399 10.1918V12.7434H16.9954L16.4958 16.1805H13.8399V24.0995C13.3074 24.1734 12.7626 24.212 12.2096 24.212C11.5713 24.212 10.9445 24.1611 10.334 24.0626V16.1805H7.42383V12.7434H10.334V9.62138C10.334 7.6845 11.9036 6.11366 13.8407 6.11366V6.1153C13.8465 6.1153 13.8514 6.11366 13.8571 6.11366H16.9962V9.08628H14.9451C14.3355 9.08628 13.8407 9.58117 13.8407 10.191L13.8399 10.1918Z" fill="white"/>
</g>
</svg>
