<svg width="25" height="25" viewBox="0 0 25 25" fill="none" xmlns="http://www.w3.org/2000/svg">
<g id="Group">
<path id="Vector" d="M24.2413 12.5004C24.2413 18.4161 19.8576 23.3067 14.1627 24.1003C13.6302 24.1742 13.0854 24.2128 12.5324 24.2128C11.8941 24.2128 11.2672 24.1619 10.6568 24.0634C5.08172 23.1656 0.823486 18.3299 0.823486 12.5004C0.823486 6.03158 6.06628 0.787231 12.5332 0.787231C19.0002 0.787231 24.243 6.03158 24.243 12.5004H24.2413Z" fill="#1C1C1B"/>
<g id="layer1">
<path id="path1009" d="M5.57246 5.95278L10.9728 13.175L5.53882 19.0472H6.76214L11.52 13.9063L15.3639 19.0472H19.5262L13.8223 11.4187L18.8805 5.95278H17.6571L13.2758 10.6875L9.73552 5.95278H5.57327H5.57246ZM7.37092 6.85392H9.28262L17.7261 18.1461H15.8144L7.37092 6.85392Z" fill="white"/>
</g>
</g>
</svg>
