<svg width="24" height="25" viewBox="0 0 24 25" fill="none" xmlns="http://www.w3.org/2000/svg">
<g id="Group">
<path id="Vector" d="M23.4999 12.4668C23.4999 6.01634 18.2723 0.787231 11.8238 0.787231C5.37528 0.787231 0.147705 6.01634 0.147705 12.4668C0.147705 18.9172 5.37528 24.1463 11.8238 24.1463C18.2723 24.1463 23.4999 18.9172 23.4999 12.4668Z" fill="#FF0209"/>
<g id="Group_2">
<path id="Vector_2" d="M16.7803 17.6397C16.4324 17.6775 16.0763 17.684 15.735 17.6832C13.0726 17.6808 10.4102 17.6783 7.74857 17.6766C6.91087 17.6766 5.99851 17.6496 5.35116 17.1169C4.62176 16.5153 4.46998 15.4722 4.4109 14.5284C4.32886 13.235 4.32229 11.9374 4.38957 10.6432C4.42649 9.93242 4.49131 9.20445 4.79734 8.56101C5.01723 8.09895 5.38398 7.68367 5.85328 7.46536C6.3989 7.21176 6.96994 7.2569 7.5574 7.25608C8.96369 7.25444 10.37 7.25362 11.7763 7.25198C13.2383 7.25033 14.7012 7.24951 16.1633 7.24787C16.8541 7.24787 17.5959 7.26182 18.1595 7.66151C18.8873 8.17692 19.085 9.15767 19.1761 10.0449C19.3443 11.6789 19.3467 13.3302 19.1826 14.9642C19.1145 15.638 19.0013 16.3504 18.5574 16.8617C18.1177 17.3689 17.4654 17.5642 16.7811 17.6389L16.7803 17.6397Z" fill="white"/>
<path id="Vector_3" d="M14.2048 12.4668L10.2371 10.1754V14.7582L14.2048 12.4668Z" fill="#FF0209"/>
</g>
</g>
</svg>
